<mxfile host="app.diagrams.net" modified="2024-03-07T16:26:13.827Z" agent="Mozilla/5.0 (Windows NT 10.0; Win64; x64) AppleWebKit/537.36 (KHTML, like Gecko) Chrome/122.0.0.0 Safari/537.36" etag="ooHQxdYzDduf2pX_Xuzo" version="24.0.2" type="device">
  <diagram name="PÃ¡gina-1" id="dUacod-UvGrpVMlwzByS">
    <mxGraphModel dx="2014" dy="246" grid="1" gridSize="10" guides="1" tooltips="1" connect="1" arrows="1" fold="1" page="1" pageScale="1" pageWidth="827" pageHeight="1169" background="none" math="0" shadow="0">
      <root>
        <mxCell id="0" />
        <mxCell id="1" parent="0" />
        <mxCell id="juQ6OJfFrcmh1SUFTUH2-47" value="OvernightPackage" style="swimlane;whiteSpace=wrap;html=1;fillColor=#6d8764;fontColor=#ffffff;strokeColor=#3A5431;rounded=1;" parent="1" vertex="1">
          <mxGeometry x="-900" y="450" width="280" height="60" as="geometry" />
        </mxCell>
        <mxCell id="juQ6OJfFrcmh1SUFTUH2-48" value="&lt;b&gt;Methods (public)&lt;/b&gt;&lt;div&gt;float calculateCost() override&lt;br&gt;&lt;/div&gt;" style="text;html=1;align=left;verticalAlign=middle;resizable=0;points=[];autosize=1;strokeColor=none;fillColor=none;" parent="juQ6OJfFrcmh1SUFTUH2-47" vertex="1">
          <mxGeometry y="20" width="180" height="40" as="geometry" />
        </mxCell>
        <mxCell id="juQ6OJfFrcmh1SUFTUH2-49" value="Package" style="swimlane;whiteSpace=wrap;html=1;fillColor=#d5e8d4;strokeColor=#82b366;rounded=1;fillStyle=auto;swimlaneFillColor=default;" parent="1" vertex="1">
          <mxGeometry x="-592" y="40" width="340" height="310" as="geometry" />
        </mxCell>
        <mxCell id="juQ6OJfFrcmh1SUFTUH2-50" value="&lt;div&gt;&lt;b&gt;Attributes (private)&lt;/b&gt;&lt;/div&gt;float weight&amp;nbsp;&lt;div&gt;&lt;div&gt;Name senderName;&amp;nbsp; &amp;nbsp; &amp;nbsp; &amp;nbsp; &amp;nbsp;&amp;nbsp;&lt;/div&gt;&lt;div&gt;Address addressSender;&amp;nbsp; &amp;nbsp;&amp;nbsp;&lt;/div&gt;&lt;div&gt;Name receiverName;&amp;nbsp; &amp;nbsp; &amp;nbsp; &amp;nbsp;&amp;nbsp;&lt;/div&gt;&lt;div&gt;Address addressReceiver;&amp;nbsp;&amp;nbsp;&lt;/div&gt;&lt;/div&gt;" style="text;html=1;align=left;verticalAlign=middle;resizable=0;points=[];autosize=1;strokeColor=none;fillColor=none;" parent="juQ6OJfFrcmh1SUFTUH2-49" vertex="1">
          <mxGeometry y="15" width="170" height="100" as="geometry" />
        </mxCell>
        <mxCell id="juQ6OJfFrcmh1SUFTUH2-51" value="&lt;div&gt;&lt;b&gt;Getters and setters (public)&lt;/b&gt;&lt;/div&gt;&lt;div&gt;float getWeight()&lt;/div&gt;&lt;div&gt;&lt;div&gt;void setWeight(float weight)&lt;/div&gt;&lt;div&gt;Name getSenderName()&lt;br&gt;&lt;/div&gt;&lt;/div&gt;&lt;div&gt;void setSenderName(const Name &amp;amp;senderName)&lt;br&gt;&lt;/div&gt;&lt;div&gt;Address getAddressSender()&lt;br&gt;&lt;/div&gt;&lt;div&gt;void setAddressSender(const Address &amp;amp;addressSender)&lt;br&gt;&lt;/div&gt;&lt;div&gt;Name getReceiverName()&lt;br&gt;&lt;/div&gt;&lt;div&gt;void setReceiverName(const Name &amp;amp;receiverName)&lt;br&gt;&lt;/div&gt;&lt;div&gt;Address getAddressReceiver()&lt;br&gt;&lt;/div&gt;&lt;div&gt;void setAddressReceiver(const Address &amp;amp;addressReceiver)&lt;/div&gt;" style="text;html=1;align=left;verticalAlign=middle;resizable=0;points=[];autosize=1;strokeColor=none;fillColor=none;" parent="juQ6OJfFrcmh1SUFTUH2-49" vertex="1">
          <mxGeometry y="105" width="340" height="170" as="geometry" />
        </mxCell>
        <mxCell id="juQ6OJfFrcmh1SUFTUH2-52" value="&lt;b&gt;Methods (public)&lt;/b&gt;&lt;div&gt;virtual float calculateCost() = 0&lt;br&gt;&lt;/div&gt;" style="text;html=1;align=left;verticalAlign=middle;resizable=0;points=[];autosize=1;strokeColor=none;fillColor=none;" parent="juQ6OJfFrcmh1SUFTUH2-49" vertex="1">
          <mxGeometry y="270" width="190" height="40" as="geometry" />
        </mxCell>
        <mxCell id="juQ6OJfFrcmh1SUFTUH2-73" style="edgeStyle=orthogonalEdgeStyle;rounded=0;orthogonalLoop=1;jettySize=auto;html=1;exitX=0.5;exitY=0;exitDx=0;exitDy=0;" parent="1" source="juQ6OJfFrcmh1SUFTUH2-54" target="juQ6OJfFrcmh1SUFTUH2-52" edge="1">
          <mxGeometry relative="1" as="geometry" />
        </mxCell>
        <mxCell id="juQ6OJfFrcmh1SUFTUH2-54" value="TwoDayPackage" style="swimlane;whiteSpace=wrap;html=1;startSize=23;fillColor=#6d8764;fontColor=#ffffff;strokeColor=#3A5431;rounded=1;" parent="1" vertex="1">
          <mxGeometry x="-320" y="450" width="280" height="60" as="geometry" />
        </mxCell>
        <mxCell id="juQ6OJfFrcmh1SUFTUH2-55" value="&lt;b&gt;Methods (public)&lt;/b&gt;&lt;div&gt;float calculateCost() override&lt;br&gt;&lt;/div&gt;" style="text;html=1;align=left;verticalAlign=middle;resizable=0;points=[];autosize=1;" parent="juQ6OJfFrcmh1SUFTUH2-54" vertex="1">
          <mxGeometry y="20" width="180" height="40" as="geometry" />
        </mxCell>
        <mxCell id="juQ6OJfFrcmh1SUFTUH2-71" style="edgeStyle=orthogonalEdgeStyle;rounded=0;orthogonalLoop=1;jettySize=auto;html=1;exitX=0.5;exitY=0;exitDx=0;exitDy=0;" parent="1" source="juQ6OJfFrcmh1SUFTUH2-47" target="juQ6OJfFrcmh1SUFTUH2-52" edge="1">
          <mxGeometry relative="1" as="geometry">
            <mxPoint x="-570" y="400" as="targetPoint" />
          </mxGeometry>
        </mxCell>
        <mxCell id="juQ6OJfFrcmh1SUFTUH2-74" value="Struct: Address" style="swimlane;whiteSpace=wrap;html=1;fillColor=#ffe6cc;strokeColor=#d79b00;dashed=1;" parent="1" vertex="1">
          <mxGeometry x="-830" y="40" width="200" height="110" as="geometry" />
        </mxCell>
        <mxCell id="juQ6OJfFrcmh1SUFTUH2-75" value="&lt;div&gt;&amp;nbsp;int streetNumber;&lt;/div&gt;&lt;div&gt;&amp;nbsp;std::string street;&lt;/div&gt;&lt;div&gt;&amp;nbsp;std::string city;&lt;/div&gt;&lt;div&gt;&amp;nbsp;std::string country;&amp;nbsp;&lt;/div&gt;&lt;div&gt;&amp;nbsp;std::string postalCode;&lt;/div&gt;" style="text;html=1;align=left;verticalAlign=middle;resizable=0;points=[];autosize=1;strokeColor=none;fillColor=none;" parent="juQ6OJfFrcmh1SUFTUH2-74" vertex="1">
          <mxGeometry y="20" width="150" height="90" as="geometry" />
        </mxCell>
        <mxCell id="juQ6OJfFrcmh1SUFTUH2-95" style="edgeStyle=orthogonalEdgeStyle;rounded=0;orthogonalLoop=1;jettySize=auto;html=1;exitX=1;exitY=0.5;exitDx=0;exitDy=0;endArrow=diamond;endFill=1;" parent="1" source="juQ6OJfFrcmh1SUFTUH2-76" target="juQ6OJfFrcmh1SUFTUH2-51" edge="1">
          <mxGeometry relative="1" as="geometry" />
        </mxCell>
        <mxCell id="juQ6OJfFrcmh1SUFTUH2-76" value="Struct: Name" style="swimlane;whiteSpace=wrap;html=1;dashed=1;fillColor=#ffe6cc;strokeColor=#d79b00;" parent="1" vertex="1">
          <mxGeometry x="-830" y="165" width="200" height="85" as="geometry" />
        </mxCell>
        <mxCell id="juQ6OJfFrcmh1SUFTUH2-77" value="&lt;div&gt;std::string name;&lt;/div&gt;&lt;div&gt;std::string middleName;&lt;/div&gt;&lt;div&gt;std::string lastName;&lt;/div&gt;" style="text;html=1;align=left;verticalAlign=middle;resizable=0;points=[];autosize=1;strokeColor=none;fillColor=none;" parent="juQ6OJfFrcmh1SUFTUH2-76" vertex="1">
          <mxGeometry y="25" width="150" height="60" as="geometry" />
        </mxCell>
        <mxCell id="juQ6OJfFrcmh1SUFTUH2-94" style="edgeStyle=orthogonalEdgeStyle;rounded=0;orthogonalLoop=1;jettySize=auto;html=1;entryX=0.018;entryY=0.426;entryDx=0;entryDy=0;entryPerimeter=0;endArrow=diamond;endFill=1;" parent="1" source="juQ6OJfFrcmh1SUFTUH2-74" target="juQ6OJfFrcmh1SUFTUH2-50" edge="1">
          <mxGeometry relative="1" as="geometry" />
        </mxCell>
      </root>
    </mxGraphModel>
  </diagram>
</mxfile>
